<svg width="1200" height="93" viewBox="0 0 1200 93" fill="none" xmlns="http://www.w3.org/2000/svg">
<path d="M340 7L340.184 4.50678L339.79 4.47774L339.407 4.57132L340 7ZM638 28.9875L637.816 31.4807L637.941 31.4899L638.066 31.4867L638 28.9875ZM1199.43 14.2182L1184.62 0.169016L1170.57 14.9774L1185.38 29.0265L1199.43 14.2182ZM0.592884 92.4287L340.593 9.42868L339.407 4.57132L-0.592884 87.5713L0.592884 92.4287ZM339.816 9.49322L637.816 31.4807L638.184 26.4943L340.184 4.50678L339.816 9.49322ZM638.066 31.4867L1185.07 17.0969L1184.93 12.0986L637.934 26.4884L638.066 31.4867Z" fill="#FFDA1A"/>
</svg>
